<svg xmlns="http://www.w3.org/2000/svg" xmlns:xlink="http://www.w3.org/1999/xlink" width="135.102" height="26" viewBox="0 0 135.102 26"><defs><style>.a,.d{fill:none;}.b,.c{fill:#9672fb;}.b{font-size:21px;font-family:Rubik-Bold, Rubik;font-weight:700;}.d{stroke:#002f87;stroke-miterlimit:10;stroke-width:11.812px;}.e{clip-path:url(#a);}.f{clip-path:url(#b);}.g{clip-path:url(#c);}.h{clip-path:url(#d);}.i{clip-path:url(#e);}.j{clip-path:url(#f);}.k{clip-path:url(#g);}.l{clip-path:url(#h);}.m{clip-path:url(#i);}</style><clipPath id="a"><path class="a" d="M-2767.152,4418.851l2.919,4.6,1.96,1.054v-6.626Z" transform="translate(2767.152 -4417.881)"/></clipPath><clipPath id="b"><path class="a" d="M-2605.5,4392.3v7.229h3.188l-.272-9.169Z" transform="translate(2605.496 -4390.364)"/></clipPath><clipPath id="c"><path class="a" d="M-2496.479,4342.4v7.593l2.43-.691v-9.578Z" transform="translate(2496.479 -4339.721)"/></clipPath><clipPath id="d"><path class="a" d="M-2403.371,4234.445v9.634l2.485-2.485-.208-10.822Z" transform="translate(2403.371 -4230.772)"/></clipPath><clipPath id="e"><path class="a" d="M-2315.687,4094.139v10.382l3.147-4.352v-11.4Z" transform="translate(2315.687 -4088.775)"/></clipPath><clipPath id="f"><path class="a" d="M-2197.059,4069.486l.072,7.347,2.636-1.3v-8.7Z" transform="translate(2197.059 -4066.827)"/></clipPath><clipPath id="g"><path class="a" d="M-2080.047,4044.219v8.04l2.43-.826v-7.768Z" transform="translate(2080.047 -4043.664)"/></clipPath><clipPath id="h"><path class="a" d="M-1975.769,3994.621v8.871h2.226v-9.356Z" transform="translate(1975.769 -3994.135)"/></clipPath><clipPath id="i"><path class="a" d="M-1876.909,4076.684v7.069l3.453.97.693-2.824Z" transform="translate(1876.909 -4076.684)"/></clipPath></defs><g transform="translate(-114.898 -133)"><text class="b" transform="translate(171 154)"><tspan x="0" y="0">Pennee</tspan></text><g transform="translate(114.898 133)"><path class="c" d="M-2892.53,4130.429c-.194.342-5.185,1.668-7.925-3.159a10.026,10.026,0,0,1-1.163-6.147,11.074,11.074,0,0,1,5.161-7.852c4.248-2.569,11.908-1.213,15.359,3.278l-.185,1.543a10.752,10.752,0,0,0-1.015-.716c-1-.623-4.694-3-8.929-2.823-3.362.138-6.941,3.3-7.667,7.043a7.555,7.555,0,0,0,.626,4.78C-2896.078,4130.165-2892.354,4130.117-2892.53,4130.429Z" transform="translate(2901.701 -4107.199)"/><path class="a" d="M-2715.209,4127.642c-.219.5,3.342,3.881,7.266,3.445,2.367-.263,4.26-2.2,7.948-6.072,4.47-4.689,4.6-5.955,7.3-7.266a11.586,11.586,0,0,1,7.538-1.057c2.818.612,4.375,2.515,4.605,2.251.259-.3-1.389-3.019-4.2-4.23-3.333-1.439-6.762-.085-8.357.545-1.508.6-2.375,1.37-8.425,7.573-4.081,4.184-4.916,5.132-6.754,5.594C-2711.941,4129.346-2715.014,4127.2-2715.209,4127.642Z" transform="translate(2722.265 -4109.213)"/><path class="c" d="M-2176.84,4120.74c.288-.273,4.654,2.047,5.75,6.511a11.919,11.919,0,0,1-.343,6.7c-1.445,3.176-4.762,4.954-7.66,5.68-4.822,1.206-10.1.092-13.186-5.034l.082-1.987a8.147,8.147,0,0,0,.9.8c1.08.842,3.955,3.634,8.014,3.907,4.25.287,7.439-.743,9.251-4.155,1.1-2.074.663-5.025.59-5.707C-2173.892,4123.3-2177.1,4120.99-2176.84,4120.74Z" transform="translate(2219.083 -4115.605)"/><circle class="c" cx="3.077" cy="3.077" r="3.077" transform="translate(20.713)"/><path class="d" d="M-2632.071,4487.713" transform="translate(2642.258 -4468.733)"/><g transform="translate(5.084 16.341)"><g class="e" transform="translate(0 0)"><path class="c" d="M-2715.209,4127.642c-.219.5,3.342,3.881,7.266,3.445,2.367-.263,4.26-2.2,7.948-6.072,4.47-4.689,4.6-5.955,7.3-7.266a11.586,11.586,0,0,1,7.538-1.057c2.818.612,4.375,2.515,4.605,2.251.259-.3-1.389-3.019-4.2-4.23-3.333-1.439-6.762-.085-8.357.545-1.508.6-2.375,1.37-8.425,7.573-4.081,4.184-4.916,5.132-6.754,5.594C-2711.941,4129.346-2715.014,4127.2-2715.209,4127.642Z" transform="translate(2717.181 -4125.553)"/></g></g><g transform="translate(11.191 15.301)"><g class="f" transform="translate(0 0)"><path class="c" d="M-2715.209,4127.642c-.219.5,3.342,3.881,7.266,3.445,2.367-.263,4.26-2.2,7.948-6.072,4.47-4.689,4.6-5.955,7.3-7.266a11.586,11.586,0,0,1,7.538-1.057c2.818.612,4.375,2.515,4.605,2.251.259-.3-1.389-3.019-4.2-4.23-3.333-1.439-6.762-.085-8.357.545-1.508.6-2.375,1.37-8.425,7.573-4.081,4.184-4.916,5.132-6.754,5.594C-2711.941,4129.346-2715.014,4127.2-2715.209,4127.642Z" transform="translate(2711.073 -4124.514)"/></g></g><g transform="translate(15.31 13.389)"><g class="g" transform="translate(0 0)"><path class="c" d="M-2715.209,4127.642c-.219.5,3.342,3.881,7.266,3.445,2.367-.263,4.26-2.2,7.948-6.072,4.47-4.689,4.6-5.955,7.3-7.266a11.586,11.586,0,0,1,7.538-1.057c2.818.612,4.375,2.515,4.605,2.251.259-.3-1.389-3.019-4.2-4.23-3.333-1.439-6.762-.085-8.357.545-1.508.6-2.375,1.37-8.425,7.573-4.081,4.184-4.916,5.132-6.754,5.594C-2711.941,4129.346-2715.014,4127.2-2715.209,4127.642Z" transform="translate(2706.954 -4122.6)"/></g></g><g transform="translate(18.828 9.272)"><g class="h" transform="translate(0 0)"><path class="c" d="M-2715.209,4127.642c-.219.5,3.342,3.881,7.266,3.445,2.367-.263,4.26-2.2,7.948-6.072,4.47-4.689,4.6-5.955,7.3-7.266a11.586,11.586,0,0,1,7.538-1.057c2.818.612,4.375,2.515,4.605,2.251.259-.3-1.389-3.019-4.2-4.23-3.333-1.439-6.762-.085-8.357.545-1.508.6-2.375,1.37-8.425,7.573-4.081,4.184-4.916,5.132-6.754,5.594C-2711.941,4129.346-2715.014,4127.2-2715.209,4127.642Z" transform="translate(2703.437 -4118.484)"/></g></g><g transform="translate(22.141 3.907)"><g class="i" transform="translate(0 0)"><path class="c" d="M-2715.209,4127.642c-.219.5,3.342,3.881,7.266,3.445,2.367-.263,4.26-2.2,7.948-6.072,4.47-4.689,4.6-5.955,7.3-7.266a11.586,11.586,0,0,1,7.538-1.057c2.818.612,4.375,2.515,4.605,2.251.259-.3-1.389-3.019-4.2-4.23-3.333-1.439-6.762-.085-8.357.545-1.508.6-2.375,1.37-8.425,7.573-4.081,4.184-4.916,5.132-6.754,5.594C-2711.941,4129.346-2715.014,4127.2-2715.209,4127.642Z" transform="translate(2700.124 -4113.119)"/></g></g><g transform="translate(26.623 3.077)"><g class="j" transform="translate(0 0)"><path class="c" d="M-2715.209,4127.642c-.219.5,3.342,3.881,7.266,3.445,2.367-.263,4.26-2.2,7.948-6.072,4.47-4.689,4.6-5.955,7.3-7.266a11.586,11.586,0,0,1,7.538-1.057c2.818.612,4.375,2.515,4.605,2.251.259-.3-1.389-3.019-4.2-4.23-3.333-1.439-6.762-.085-8.357.545-1.508.6-2.375,1.37-8.425,7.573-4.081,4.184-4.916,5.132-6.754,5.594C-2711.941,4129.346-2715.014,4127.2-2715.209,4127.642Z" transform="translate(2695.642 -4112.29)"/></g></g><g transform="translate(31.044 2.201)"><g class="k" transform="translate(0 0)"><path class="c" d="M-2715.209,4127.642c-.219.5,3.342,3.881,7.266,3.445,2.367-.263,4.26-2.2,7.948-6.072,4.47-4.689,4.6-5.955,7.3-7.266a11.586,11.586,0,0,1,7.538-1.057c2.818.612,4.375,2.515,4.605,2.251.259-.3-1.389-3.019-4.2-4.23-3.333-1.439-6.762-.085-8.357.545-1.508.6-2.375,1.37-8.425,7.573-4.081,4.184-4.916,5.132-6.754,5.594C-2711.941,4129.346-2715.014,4127.2-2715.209,4127.642Z" transform="translate(2691.22 -4111.414)"/></g></g><g transform="translate(34.984 0.331)"><g class="l" transform="translate(0 0)"><path class="c" d="M-2715.209,4127.642c-.219.5,3.342,3.881,7.266,3.445,2.367-.263,4.26-2.2,7.948-6.072,4.47-4.689,4.6-5.955,7.3-7.266a11.586,11.586,0,0,1,7.538-1.057c2.818.612,4.375,2.515,4.605,2.251.259-.3-1.389-3.019-4.2-4.23-3.333-1.439-6.762-.085-8.357.545-1.508.6-2.375,1.37-8.425,7.573-4.081,4.184-4.916,5.132-6.754,5.594C-2711.941,4129.346-2715.014,4127.2-2715.209,4127.642Z" transform="translate(2687.281 -4109.543)"/></g></g><g transform="translate(38.72 3.449)"><g class="m" transform="translate(0 0)"><path class="c" d="M-2715.209,4127.642c-.219.5,3.342,3.881,7.266,3.445,2.367-.263,4.26-2.2,7.948-6.072,4.47-4.689,4.6-5.955,7.3-7.266a11.586,11.586,0,0,1,7.538-1.057c2.818.612,4.375,2.515,4.605,2.251.259-.3-1.389-3.019-4.2-4.23-3.333-1.439-6.762-.085-8.357.545-1.508.6-2.375,1.37-8.425,7.573-4.081,4.184-4.916,5.132-6.754,5.594C-2711.941,4129.346-2715.014,4127.2-2715.209,4127.642Z" transform="translate(2683.545 -4112.662)"/></g></g></g></g></svg>